<?xml version="1.0" standalone="no"?>
<!DOCTYPE svg PUBLIC "-//W3C//DTD SVG 20010904//EN"
 "http://www.w3.org/TR/2001/REC-SVG-20010904/DTD/svg10.dtd">
<svg version="1.0" xmlns="http://www.w3.org/2000/svg"
 width="500.000000pt" height="500.000000pt" viewBox="0 0 500.000000 500.000000"
 preserveAspectRatio="xMidYMid meet">

<g transform="translate(0.000000,500.000000) scale(0.100000,-0.100000)"
fill="#000000" stroke="none">
<path d="M2462 4923 c-17 -3 -22 -9 -16 -21 15 -37 16 -62 3 -63 -8 0 -30 -1
-49 -2 -26 -2 -34 -6 -31 -17 2 -8 3 -35 3 -59 -2 -42 -1 -43 26 -38 39 8 48
-1 60 -57 15 -73 -20 -169 -85 -231 -66 -62 -151 -82 -216 -49 -18 9 -53 37
-79 62 -55 53 -61 85 -28 140 13 21 20 50 20 81 0 43 -4 53 -31 75 -41 35 -71
41 -108 22 -65 -34 -87 -109 -49 -166 13 -19 34 -40 47 -47 14 -6 28 -19 33
-28 5 -9 14 -78 19 -153 6 -75 12 -143 15 -151 4 -11 20 -12 87 -5 74 7 187 9
397 5 52 -1 70 -4 60 -11 -8 -5 -28 -10 -43 -10 -16 0 -26 -4 -23 -8 3 -5 19
-7 37 -4 22 3 30 1 25 -7 -4 -6 -1 -11 8 -11 9 0 16 -4 16 -9 0 -5 10 -12 23
-14 12 -2 -43 -5 -123 -6 -141 -1 -327 -13 -416 -27 l-44 -6 0 -87 c0 -47 -7
-117 -16 -156 -31 -134 -36 -120 44 -117 121 6 188 -46 252 -196 51 -117 77
-223 86 -347 16 -227 7 -286 -55 -357 -17 -20 -31 -42 -31 -51 0 -22 -26 -80
-61 -138 -43 -69 -38 -135 13 -211 20 -29 39 -66 43 -83 3 -16 20 -54 37 -84
25 -43 41 -58 82 -77 89 -41 198 -27 267 35 33 29 44 49 60 105 10 38 27 79
38 90 62 68 66 137 14 239 l-36 72 16 78 c21 106 71 170 137 179 24 3 25 1 27
-52 6 -195 2 -607 -6 -671 -18 -139 -50 -263 -85 -331 -19 -38 -32 -68 -29
-68 3 0 18 9 35 21 50 36 78 93 100 202 20 102 20 224 1 397 -3 30 -2 52 2 48
3 -3 11 -39 16 -79 30 -243 103 -484 180 -595 15 -23 25 -44 22 -48 -3 -3
-296 -6 -649 -6 -480 0 -644 3 -644 11 0 7 15 35 34 63 60 92 73 131 137 421
l13 60 8 -115 c15 -227 47 -323 120 -359 49 -24 60 -20 31 12 -33 37 -64 115
-79 201 -16 92 -34 485 -28 621 2 50 4 141 4 203 1 90 4 114 15 119 9 3 22 0
30 -7 9 -7 17 -11 20 -8 8 8 -22 102 -54 171 -18 38 -31 80 -29 95 3 25 5 24
50 -32 59 -75 84 -152 99 -302 l12 -118 27 33 c52 62 63 161 36 339 -21 134
-34 171 -129 370 -35 73 -100 103 -182 84 -40 -9 -40 -9 -14 -20 21 -8 28 -20
33 -54 4 -26 17 -54 33 -70 23 -24 34 -28 85 -28 53 0 60 -2 70 -26 16 -34 0
-44 -75 -44 -70 0 -108 18 -141 66 l-24 35 -11 -32 c-16 -46 -14 -197 4 -256
8 -27 28 -67 45 -88 52 -66 56 -118 25 -370 -17 -143 -45 -391 -50 -450 -3
-38 -24 -127 -46 -197 -41 -129 -75 -186 -160 -272 -71 -71 -80 -115 -38 -179
24 -37 28 -50 20 -65 -11 -20 -104 -92 -119 -92 -13 0 -58 -52 -75 -85 -41
-82 -29 -162 34 -222 52 -49 49 -72 -11 -93 -56 -19 -83 -64 -75 -125 4 -22 9
-70 12 -107 l5 -68 474 0 474 0 0 40 0 40 -447 2 -448 3 -3 39 c-2 21 2 51 9
67 l11 29 439 0 439 0 0 30 0 30 -212 1 c-117 1 -295 1 -394 -1 -100 -1 -184
2 -186 6 -3 5 -1 24 4 42 l9 32 389 0 390 0 0 29 c0 27 -2 28 -57 34 -31 3
-84 3 -118 0 -34 -3 -191 -2 -349 2 -273 7 -288 8 -307 28 -25 28 -26 101 0
144 11 17 41 46 67 64 45 30 99 84 117 116 16 27 10 73 -11 96 -12 13 -22 27
-22 33 0 5 167 9 422 9 327 0 445 3 518 15 61 10 166 15 290 15 178 0 195 -1
198 -18 2 -10 -10 -30 -28 -47 -27 -26 -31 -34 -25 -62 9 -42 64 -116 110
-148 74 -52 83 -60 100 -96 21 -45 14 -92 -21 -125 l-26 -24 -319 -3 -319 -3
0 65 c0 36 5 68 10 71 30 18 -2 25 -122 25 -127 0 -131 -1 -114 -19 15 -17 16
-68 14 -615 l-3 -598 -24 -19 c-26 -21 -81 -25 -114 -8 -12 6 -38 29 -57 52
l-36 40 -29 -25 c-24 -21 -28 -32 -27 -68 2 -50 18 -71 82 -108 33 -20 58 -26
100 -27 85 0 125 12 179 55 124 98 141 158 141 507 l0 253 393 2 392 3 9 103
c11 139 -10 185 -90 194 -48 5 -44 40 10 92 94 92 70 231 -57 317 -27 18 -62
49 -79 67 l-29 34 25 27 c48 50 43 133 -10 161 -13 8 -24 17 -24 20 0 4 -13
24 -30 45 -35 43 -37 61 -12 84 63 58 232 275 221 285 -2 2 -62 -37 -132 -87
l-128 -90 7 -60 c13 -111 -32 -38 -81 132 -46 158 -85 419 -105 694 l-13 168
25 27 c92 103 125 228 98 373 -17 87 -26 76 -27 -29 -1 -89 -4 -105 -31 -161
-42 -84 -81 -131 -119 -147 -64 -27 -66 -20 -23 103 17 47 30 95 30 106 0 20
0 20 -21 1 -42 -38 -109 -208 -109 -277 0 -25 -43 -107 -56 -107 -17 0 -34 78
-34 157 0 121 39 313 79 392 19 37 41 54 41 32 0 -14 114 14 143 35 15 11 32
36 38 59 6 22 13 46 15 53 2 6 17 12 34 12 23 0 30 4 30 19 0 43 -38 57 -135
51 -49 -2 -118 -42 -151 -87 -108 -143 -170 -547 -114 -748 10 -38 26 -94 34
-124 8 -30 25 -74 38 -97 12 -24 20 -46 16 -49 -3 -3 -21 3 -39 14 -47 29 -66
26 -104 -12 -42 -42 -61 -105 -45 -152 13 -40 55 -70 93 -66 26 2 27 1 21 -26
-18 -74 -57 -112 -134 -131 -50 -12 -118 -2 -158 24 -22 14 -62 71 -75 107 -6
15 -2 16 31 11 29 -4 45 0 75 20 21 14 44 26 52 26 17 0 15 -42 18 713 l2 408
-47 51 c-27 28 -48 58 -48 67 0 19 46 89 73 111 23 19 25 33 26 147 l1 92 45
7 c41 6 379 -10 448 -21 l27 -5 0 65 c0 55 -3 65 -17 66 -12 0 -13 2 -5 6 10
4 10 8 1 19 -9 11 -9 14 1 14 10 0 10 3 0 15 -11 13 -10 14 2 10 13 -5 16 16
21 137 8 165 13 198 36 205 60 19 81 47 81 109 0 81 -66 137 -136 114 -73 -24
-99 -123 -49 -189 23 -32 23 -35 9 -70 -32 -76 -125 -141 -203 -141 -48 0
-138 61 -170 116 -34 57 -50 128 -44 189 l6 56 41 -6 41 -6 1 61 2 61 -42 -3
-41 -3 2 41 c1 39 0 42 -29 48 -17 3 -33 5 -37 5 -3 -1 -16 -4 -29 -6z m522
-788 c3 -9 0 -15 -9 -15 -16 0 -27 14 -18 24 10 10 21 7 27 -9z m-863 -514
c34 -34 37 -56 9 -71 -31 -17 -80 13 -80 48 0 28 16 52 33 52 5 0 22 -13 38
-29z m827 -8 c6 -43 -88 -74 -96 -31 -2 9 6 26 18 38 28 28 74 24 78 -7z
m-589 -1002 c34 -25 55 -88 41 -125 -8 -21 -16 -26 -46 -26 -50 0 -94 44 -94
96 0 67 46 93 99 55z m376 -5 c21 -21 23 -27 13 -65 -12 -48 -75 -111 -112
-111 -19 0 -27 8 -36 34 -15 45 0 99 36 138 34 34 67 36 99 4z m579 -1438 c7
-18 11 -36 7 -40 -8 -8 -249 -14 -463 -10 l-168 2 0 40 0 40 305 0 305 0 14
-32z m96 -118 c8 -13 15 -116 8 -122 -2 -1 -166 -4 -366 -8 l-362 -5 0 72 0
72 53 4 c28 2 188 4 355 3 257 -1 304 -3 312 -16z"/>
<path d="M3072 4079 c-5 -13 -12 -60 -15 -104 -7 -79 3 -123 29 -132 6 -2 27
33 46 77 l37 80 -36 42 c-52 64 -51 63 -61 37z"/>
<path d="M1886 4045 l-38 -45 27 -70 c31 -80 42 -92 51 -53 3 15 10 43 16 61
10 33 3 117 -11 140 -5 9 -19 -1 -45 -33z"/>
<path d="M1797 3945 c-17 -24 -17 -26 38 -132 l55 -108 -3 60 c-3 52 -44 174
-66 197 -3 3 -14 -4 -24 -17z"/>
<path d="M3149 3882 c-32 -68 -35 -83 -29 -127 l7 -50 52 107 c43 89 50 111
41 128 -19 35 -34 22 -71 -58z"/>
<path d="M3220 3822 c-19 -37 -54 -100 -77 -141 -42 -70 -43 -76 -31 -107 l13
-33 78 134 c43 74 80 142 83 152 2 10 -4 28 -13 40 l-18 23 -35 -68z"/>
<path d="M1731 3856 c-11 -20 -9 -30 17 -78 51 -96 126 -218 133 -218 4 0 10
13 14 29 5 22 1 35 -12 48 -10 10 -43 69 -73 131 -30 62 -57 112 -61 112 -3 0
-11 -11 -18 -24z"/>
<path d="M3284 3753 c-14 -26 -42 -72 -60 -100 -19 -29 -34 -55 -34 -59 0 -3
-14 -24 -31 -46 -29 -36 -31 -43 -23 -81 l9 -42 76 115 c130 198 133 205 105
243 -13 17 -16 15 -42 -30z"/>
<path d="M1672 3766 c-9 -21 -3 -36 51 -125 77 -125 124 -191 136 -191 14 0
19 49 6 60 -16 13 -104 158 -139 228 -15 28 -30 52 -35 52 -4 0 -13 -11 -19
-24z"/>
<path d="M2491 3729 c-24 -48 -24 -52 -9 -82 9 -18 19 -41 22 -51 6 -18 8 -18
34 7 15 14 35 39 44 55 18 29 17 30 -18 76 -19 25 -38 46 -42 46 -4 -1 -18
-23 -31 -51z"/>
<path d="M3315 3633 c-22 -38 -68 -105 -102 -151 -51 -68 -63 -91 -66 -127 -2
-25 -1 -45 3 -45 3 0 23 24 45 53 21 28 57 77 80 107 23 30 60 83 83 117 38
55 41 65 30 87 -6 15 -16 26 -23 26 -6 0 -29 -30 -50 -67z"/>
<path d="M1620 3670 c-9 -18 1 -39 75 -148 47 -70 103 -148 125 -172 l39 -45
1 42 c0 23 -3 43 -7 45 -16 7 -82 97 -143 196 -35 56 -67 102 -72 102 -4 0
-12 -9 -18 -20z"/>
<path d="M3367 3550 c-64 -99 -181 -244 -205 -255 -16 -7 -25 -24 -33 -63 -6
-30 -9 -56 -6 -58 10 -10 317 353 317 376 0 17 -20 60 -27 60 -5 -1 -25 -27
-46 -60z"/>
<path d="M1571 3574 c-10 -24 -9 -30 12 -53 13 -14 58 -71 99 -126 110 -145
189 -230 199 -213 12 22 -11 88 -31 88 -20 0 -97 94 -190 233 -36 53 -68 97
-71 97 -3 0 -11 -12 -18 -26z"/>
<path d="M2994 3509 c-35 -37 -67 -55 -118 -64 -47 -9 -29 -25 28 -25 57 0
101 31 114 80 5 22 9 40 8 40 -1 0 -15 -14 -32 -31z"/>
<path d="M1537 3496 c-13 -34 -6 -47 99 -173 167 -201 249 -273 236 -208 -2
14 -8 25 -12 25 -21 0 -189 196 -303 354 -13 17 -14 18 -20 2z"/>
<path d="M3367 3407 c-43 -56 -113 -140 -157 -187 -60 -64 -80 -92 -80 -112 0
-16 4 -28 9 -28 13 0 183 182 268 287 62 77 73 95 67 117 -3 14 -11 26 -18 25
-6 0 -46 -46 -89 -102z"/>
<path d="M3420 3333 c-118 -139 -251 -273 -271 -273 -15 0 -19 -8 -19 -34 0
-19 5 -38 11 -41 14 -9 357 339 365 371 4 14 2 34 -2 45 -8 18 -18 11 -84 -68z"/>
<path d="M1504 3387 c-4 -18 0 -36 12 -56 49 -76 316 -341 344 -341 20 0 10
49 -12 61 -46 24 -261 252 -321 338 l-16 24 -7 -26z"/>
<path d="M3496 3286 c-40 -53 -254 -265 -309 -306 -38 -29 -46 -41 -47 -67 0
-18 3 -33 6 -33 13 0 182 149 286 251 109 108 119 124 99 173 -6 16 -10 14
-35 -18z"/>
<path d="M1475 3271 c-6 -29 -2 -37 42 -84 97 -104 284 -271 333 -297 18 -10
20 -8 19 17 0 23 -14 39 -72 83 -64 50 -185 169 -279 274 l-36 40 -7 -33z"/>
<path d="M3519 3171 c-29 -36 -253 -240 -327 -296 -44 -33 -52 -44 -52 -72 l0
-34 58 43 c59 44 142 112 251 207 112 97 110 94 104 137 -3 22 -6 40 -8 42 -1
2 -13 -11 -26 -27z"/>
<path d="M1455 3149 c-7 -31 -4 -37 46 -82 62 -57 256 -219 311 -261 20 -15
42 -25 48 -21 19 12 10 41 -17 57 -40 23 -204 166 -299 260 l-82 80 -7 -33z"/>
<path d="M3475 2998 c-91 -82 -265 -221 -307 -246 -22 -13 -28 -24 -28 -49 0
-39 3 -40 38 -12 15 11 72 55 128 97 247 188 264 203 264 245 0 20 -3 37 -7
37 -5 0 -44 -33 -88 -72z"/>
<path d="M1442 3023 c3 -41 8 -46 304 -271 105 -80 109 -82 119 -61 7 18 6 24
-9 33 -33 19 -299 236 -353 287 -28 27 -54 49 -58 49 -3 0 -5 -17 -3 -37z"/>
<path d="M3420 2835 c-80 -64 -175 -136 -212 -161 -62 -42 -68 -49 -68 -81 0
-33 1 -35 19 -22 87 61 270 198 334 248 70 56 77 65 77 96 0 19 -1 35 -2 35
-2 -1 -68 -52 -148 -115z"/>
<path d="M1430 2911 c0 -25 12 -39 76 -88 42 -32 81 -63 88 -69 25 -23 249
-184 256 -184 5 0 10 10 12 22 2 18 -10 31 -57 63 -51 34 -248 188 -334 262
-35 30 -41 29 -41 -6z"/>
<path d="M3510 2790 c-30 -22 -71 -53 -90 -68 -68 -53 -265 -192 -272 -192 -4
0 -8 -16 -8 -35 0 -19 3 -35 6 -35 16 0 414 289 421 306 2 7 3 24 1 38 l-3 27
-55 -41z"/>
<path d="M1440 2787 c0 -29 6 -39 43 -63 51 -35 49 -33 117 -87 66 -52 206
-150 238 -166 20 -11 22 -10 22 16 0 23 -9 33 -48 56 -26 15 -108 75 -182 133
-74 57 -147 114 -162 125 l-28 20 0 -34z"/>
<path d="M3410 2603 c-80 -58 -173 -124 -207 -146 -57 -36 -63 -44 -63 -74 0
-18 2 -33 5 -33 6 0 334 226 373 257 18 14 48 90 39 100 -1 1 -67 -46 -147
-104z"/>
<path d="M1460 2677 c0 -43 28 -70 191 -187 96 -68 182 -125 191 -128 14 -3
18 2 18 21 0 14 -6 27 -12 30 -7 3 -63 40 -123 83 -93 67 -144 104 -252 187
-9 7 -13 5 -13 -6z"/>
<path d="M3375 2469 c-77 -55 -161 -114 -187 -131 -39 -25 -48 -37 -48 -60 0
-15 3 -28 7 -28 18 0 356 238 363 255 17 45 21 65 13 64 -4 0 -71 -45 -148
-100z"/>
<path d="M1490 2546 c0 -1 5 -17 11 -35 9 -25 43 -53 163 -135 83 -57 161
-108 174 -115 20 -11 22 -9 22 12 0 17 -16 33 -62 64 -35 22 -116 80 -180 127
-108 79 -128 92 -128 82z"/>
<path d="M3344 2342 c-77 -54 -154 -107 -171 -117 -33 -19 -38 -34 -24 -68 6
-16 22 -7 124 65 65 46 129 89 142 96 24 13 45 43 65 97 5 14 8 25 6 25 -2 0
-66 -44 -142 -98z"/>
<path d="M1535 2398 c13 -43 33 -65 107 -115 40 -27 101 -69 134 -93 61 -42
84 -45 84 -12 0 14 -44 48 -138 107 -9 6 -56 38 -105 73 -73 51 -87 58 -82 40z"/>
<path d="M1626 2220 c10 -18 44 -60 74 -94 30 -34 71 -81 92 -104 20 -24 38
-40 41 -35 2 4 7 29 11 55 l7 46 -108 74 c-143 99 -139 97 -117 58z"/>
<path d="M1041 1668 c-22 -57 -69 -173 -104 -258 -75 -183 -207 -506 -247
-605 -169 -418 -205 -474 -319 -491 -89 -13 -11 -19 194 -14 116 3 203 7 193
8 -28 3 -68 60 -68 97 0 30 94 278 133 353 l18 32 220 0 220 0 21 -47 c11 -27
38 -86 60 -132 62 -133 79 -192 67 -233 -10 -39 -23 -53 -54 -61 -11 -2 90 -5
225 -5 211 -1 239 1 199 12 -99 26 -136 71 -214 256 -31 74 -67 160 -81 191
-13 31 -24 60 -24 65 0 5 -20 56 -44 114 -113 264 -198 469 -267 637 -41 100
-77 183 -81 183 -3 0 -25 -46 -47 -102z m29 -340 c0 -2 38 -97 84 -213 47
-115 82 -213 80 -217 -7 -11 -354 -10 -354 0 0 5 18 53 41 108 22 54 53 133
69 174 45 118 60 150 70 150 6 0 10 -1 10 -2z"/>
<path d="M3840 1638 c-29 -73 -95 -232 -145 -353 -51 -121 -114 -274 -140
-340 -25 -66 -84 -210 -131 -320 -103 -245 -142 -295 -244 -311 -82 -13 -12
-19 193 -16 l209 3 -33 22 c-38 25 -53 74 -40 122 13 46 98 260 121 305 l21
40 221 -2 222 -3 58 -129 c85 -186 100 -234 87 -280 -8 -28 -19 -41 -42 -51
-28 -13 -5 -14 208 -14 136 1 226 4 207 9 -44 10 -105 52 -135 92 -26 36 -32
47 -102 213 -26 61 -53 124 -60 140 -7 17 -16 41 -20 55 -8 25 -145 360 -170
415 -15 33 -119 283 -181 437 -21 54 -42 98 -45 98 -3 0 -30 -60 -59 -132z
m125 -523 c46 -116 81 -213 78 -217 -6 -11 -353 -10 -353 1 0 5 10 31 21 58
24 53 42 99 87 218 49 132 61 157 73 153 6 -2 48 -98 94 -213z"/>
<path d="M2770 1740 c20 -13 420 -13 420 0 0 6 -79 10 -217 10 -145 0 -213 -4
-203 -10z"/>
<path d="M1863 1596 c-18 -25 -44 -53 -60 -62 -55 -35 -113 -86 -113 -100 0
-11 27 -14 152 -14 84 0 202 5 263 10 277 26 299 30 337 55 56 38 50 62 -24
95 -26 11 -82 24 -125 30 -162 19 -286 30 -341 30 -57 0 -59 -1 -89 -44z"/>
</g>
</svg>
